<?xml version="1.0" encoding="UTF-8" standalone="no"?>
<svg
   id="Layer_1"
   data-name="Layer 1"
   viewBox="0 0 109.57 122.88"
   version="1.1"
   sodipodi:docname="distribute-icon.svg"
   inkscape:export-filename="distribute-icon.svg"
   inkscape:export-xdpi="96"
   inkscape:export-ydpi="96"
   inkscape:version="1.4 (86a8ad7, 2024-10-11)"
   xmlns:inkscape="http://www.inkscape.org/namespaces/inkscape"
   xmlns:sodipodi="http://sodipodi.sourceforge.net/DTD/sodipodi-0.dtd"
   xmlns="http://www.w3.org/2000/svg"
   xmlns:svg="http://www.w3.org/2000/svg">
  <defs
     id="defs1" />
  <sodipodi:namedview
     id="namedview1"
     pagecolor="#505050"
     bordercolor="#ffffff"
     borderopacity="1"
     inkscape:showpageshadow="0"
     inkscape:pageopacity="0"
     inkscape:pagecheckerboard="1"
     inkscape:deskcolor="#d1d1d1"
     showguides="false"
     inkscape:zoom="5.0911688"
     inkscape:cx="-21.311413"
     inkscape:cy="29.168155"
     inkscape:window-width="2560"
     inkscape:window-height="1369"
     inkscape:window-x="1912"
     inkscape:window-y="-8"
     inkscape:window-maximized="1"
     inkscape:current-layer="Layer_1" />
  <title
     id="title1">distribute</title>
  <path
     d="M 52.106472,29.929596 V 22.063098 A 11.066768,11.100946 0 0 1 47.130407,3.4750029 v 0 a 11.036912,11.070998 0 0 1 15.634795,0 v 0 A 11.07672,11.110929 0 0 1 57.420909,22.172909 v 7.457201 l -0.169186,-0.07986 a 6.4788363,6.4988453 0 0 0 -0.915596,-0.179692 10.758252,10.791477 0 0 0 -1.234064,0 h -0.13933 a 6.7873523,6.8083141 0 0 0 -0.995213,0.06988 c -0.228899,0 -0.507559,0.09983 -0.816075,0.179692 a 6.6778788,6.6985026 0 0 0 -0.995213,0.309469 h -0.07962 z m -17.913833,17.479997 20.172966,-11.330552 0.248803,-0.09983 a 2.0401865,2.0464874 0 0 1 0.646889,-0.09983 2.0899472,2.0964017 0 0 1 0.557319,0.06988 1.0847821,1.0881323 0 0 1 0.437894,0.199658 l 19.963971,11.590106 a 2.0700429,2.076436 0 0 1 1.104687,0.998287 2.6373143,2.6454593 0 0 1 0.298564,1.297772 v 23.369888 a 2.2491812,2.2561275 0 0 1 -1.184304,1.84683 L 56.385887,86.941739 a 1.9904259,1.996573 0 0 1 -0.457798,0.179692 2.1397078,2.146316 0 0 1 -1.224111,0 2.1695642,2.1762646 0 0 1 -0.55732,-0.249572 L 33.63532,74.892421 a 2.2491812,2.2561275 0 0 1 -1.1644,-1.806899 V 49.585857 a 2.2491812,2.2561275 0 0 1 1.691862,-2.176264 z M 53.101685,81.16166 V 62.873051 L 36.949379,53.239586 V 71.647989 L 53.08178,81.16166 Z M 73.17513,53.519106 57.560239,62.883034 V 81.181626 L 73.17513,71.947475 Z M 55.261297,40.611262 40.024587,49.7356 55.330962,58.979734 70.179539,49.995155 Z m 2.308894,60.426278 a 11.126481,11.160843 0 0 1 5.185059,2.93497 v 0 a 11.036912,11.070998 0 0 1 0,15.68308 v 0 a 11.036912,11.070998 0 0 1 -15.634795,0 v 0 a 11.036912,11.070998 0 0 1 0,-15.68308 v 0 a 11.036912,11.070998 0 0 1 5.155203,-2.93497 v -7.78663 a 6.5684054,6.588691 0 0 0 0.656841,0.229606 v 0 l 0.37818,0.09983 a 4.8765434,4.891604 0 0 0 0.776267,0.159726 8.4394057,8.4654697 0 0 0 1.253968,0.109812 8.3299323,8.3556582 0 0 0 1.253968,-0.109812 6.4091713,6.4289652 0 0 0 0.995213,-0.219623 v 7.517091 z m 1.433106,6.68852 a 5.7921393,5.8100276 0 0 0 -8.140841,0 v 0 a 5.8020915,5.8200104 0 0 0 0,8.17597 v 0 a 5.7921393,5.8100276 0 0 0 8.140841,0 v 0 a 5.7821872,5.8000447 0 0 0 0,-8.17597 z m 0,-100.5274483 a 5.7921393,5.8100276 0 0 0 -8.140841,0 v 0 a 5.8020915,5.8200104 0 0 0 0,8.1759663 5.8020915,5.8200104 0 0 0 4.080373,1.687104 5.7622829,5.780079 0 0 0 4.070421,-9.8630703 z m 39.49005,68.3227293 a 11.066768,11.100946 0 0 1 7.822373,3.254414 v 0 a 11.036912,11.070998 0 0 1 0,15.683082 v 0 A 11.066768,11.100946 0 0 1 87.894329,83.407805 l -6.478836,-3.753558 a 8.3199802,8.3456753 0 0 0 1.443059,-1.796915 9.8028475,9.8331222 0 0 0 0.507558,-0.998287 6.4191235,6.4389481 0 0 0 0.388133,-0.998286 8.0214163,8.0461894 0 0 0 0.228899,-0.908441 l 6.618166,3.83342 0.05971,-0.06988 a 11.07672,11.110929 0 0 1 7.832326,-3.254414 z m 4.070423,6.988006 a 5.7622829,5.780079 0 1 0 0,8.195932 v 0 a 5.7821872,5.8000447 0 0 0 0,-8.175966 z M 11.601305,75.521341 a 11.046864,11.08098 0 0 1 7.702948,3.13462 l 6.807257,-3.993146 0.05971,0.239589 0.159234,0.608954 a 7.1157725,7.1377486 0 0 0 0.46775,1.167996 4.76707,4.7817924 0 0 0 0.398085,0.778663 8.8673473,8.8947329 0 0 0 1.433107,1.786933 l 0.05971,0.0599 -6.568405,3.803472 A 11.066768,11.100946 0 0 1 3.7789313,94.478802 v 0 A 11.07672,11.110929 0 0 1 11.611257,75.511358 Z m 4.070421,6.988006 a 5.7821872,5.8000447 0 0 0 -8.150794,0 5.7921393,5.8100276 0 0 0 0,8.175966 H 7.491076 a 5.8020915,5.8200104 0 0 0 8.150794,0 5.7921393,5.8100276 0 0 0 0,-8.185949 z M 98.493347,25.297546 a 11.066768,11.100946 0 0 1 7.832323,18.967444 v 0 a 11.066768,11.100946 0 0 1 -15.654697,0 l -0.149282,-0.129777 -6.578357,3.793489 a 8.5588313,8.5852641 0 0 0 -0.915596,-2.405871 8.8275388,8.8548014 0 0 0 -1.711766,-2.216196 l 6.548501,-3.793489 a 11.017007,11.051032 0 0 1 2.796548,-10.981151 v 0 a 11.026959,11.061015 0 0 1 7.822374,-3.254414 z m 4.070423,6.988006 a 5.7821872,5.8000447 0 0 0 -8.140844,0 v 0 a 5.7670014,5.784812 0 0 0 8.150794,8.185949 v 0 a 5.7622829,5.780079 0 0 0 0,-8.175966 z M 11.601305,25.297546 a 10.947342,10.981152 0 0 1 7.832326,3.254414 v 0 a 10.947342,10.981152 0 0 1 3.244394,7.83655 11.265811,11.300603 0 0 1 -0.308516,2.61551 l 6.548501,3.993146 a 7.2750066,7.2974745 0 0 0 -0.826026,0.838561 8.4195015,8.445504 0 0 0 -1.323634,2.05647 l -0.268707,0.598972 c -0.119426,0.3494 -0.228899,0.688818 -0.318468,0.998287 l -6.25989,-3.813455 A 6.1205596,6.1394621 0 0 1 19.433631,44.205093 11.066768,11.100946 0 1 1 3.7689792,28.561943 v 0 a 11.026959,11.061015 0 0 1 7.8223738,-3.254414 z m 4.070421,6.988006 a 5.8020915,5.8200104 0 0 0 -8.150794,0 H 7.491076 a 5.8020915,5.8200104 0 0 0 0,8.175967 5.7622829,5.780079 0 0 0 9.842656,-4.092975 5.7423787,5.7601132 0 0 0 -1.671958,-4.082992 z"
     id="path1"
     style="stroke-width:0.996749" />
  <path
     style="fill:none;stroke-width:0"
     d="M 9.5292543,97.510586 C 3.2932854,96.205526 -0.59332466,90.047918 0.94452681,83.909686 1.4978175,81.701264 2.9084212,79.490767 4.6790561,78.057465 c 1.1239723,-0.909838 2.8704738,-1.79248 4.2710722,-2.158503 1.4395357,-0.376198 3.6324117,-0.39887 5.0373337,-0.05208 1.806609,0.445941 3.346013,1.214621 4.716405,2.355073 l 0.617611,0.513981 3.332608,-1.957093 c 1.832934,-1.076402 3.36411,-1.919127 3.402612,-1.872724 0.0385,0.0464 0.154958,0.368668 0.258792,0.716144 0.282866,0.946604 0.951214,2.162902 1.637893,2.980732 l 0.611867,0.728728 -3.121289,1.806336 c -1.716709,0.993485 -3.175327,1.840954 -3.241373,1.883265 -0.08767,0.05616 -0.06557,0.290107 0.08188,0.866645 0.791186,3.093598 0.211838,6.379553 -1.598843,9.068335 -0.580007,0.861285 -1.963824,2.245102 -2.82511,2.82511 -0.913872,0.61542 -2.417326,1.311476 -3.435018,1.590315 -1.072118,0.293751 -3.824916,0.383066 -4.8962467,0.158859 z m 3.4263087,-5.273893 c 2.046869,-0.522567 3.688025,-2.126363 4.20434,-4.108628 0.212752,-0.816812 0.208505,-2.377799 -0.0085,-3.109058 -0.768804,-2.591185 -2.905757,-4.204613 -5.568926,-4.204613 -2.6190703,0 -4.8121884,1.655862 -5.5688293,4.204613 -0.2170689,0.731198 -0.2213634,2.292029 -0.00855,3.109058 0.5105935,1.9603 2.1977285,3.63618 4.1329013,4.10533 0.812267,0.19692 2.05343,0.198373 2.817527,0.0033 z"
     id="path5" />
  <path
     style="fill:#ff6600;fill-rule:evenodd;stroke-width:0"
     d="m 54.870131,0.13190375 c -2.040509,-0.004942 -4.06361,0.60052288 -5.795219,1.67289425 -1.505272,0.9413079 -2.787131,2.2467121 -3.70097,3.7689326 -1.557127,2.6084222 -2.017143,5.8576624 -1.17417,8.7830764 0.868981,3.18829 3.241237,5.916985 6.27047,7.233701 0.490177,0.218086 0.99935,0.38948 1.513197,0.542196 0.0156,2.541209 -0.01066,5.083074 0.04001,7.623834 -0.01389,0.116914 0.03448,0.309459 0.190972,0.244954 0.843671,-0.264776 1.703564,-0.545696 2.600912,-0.517171 0.635388,0.0069 1.276203,-0.047 1.907688,0.04157 0.249697,0.04323 0.487683,0.159274 0.737033,0.17117 0.119224,-0.179948 0.02135,-0.434449 0.05317,-0.643853 0,-2.265218 0,-4.530436 0,-6.795654 1.288633,-0.326492 2.529553,-0.849449 3.633594,-1.593916 2.565741,-1.709427 4.363797,-4.517337 4.833842,-7.565335 C 66.510743,9.8258583 65.489999,6.3374677 63.269111,3.8753257 62.512095,3.043237 61.660402,2.2920657 60.68734,1.7213354 58.945443,0.6594384 56.909525,0.10667014 54.870131,0.13190375 Z m 0.06049,5.52591955 c 0.58329,-0.023066 1.172053,0.034641 1.724786,0.2368163 1.706058,0.5367104 3.131437,1.9219087 3.662051,3.6370805 0.56294,1.7255739 0.243663,3.7097889 -0.855773,5.1535039 -1.213823,1.639779 -3.346812,2.539634 -5.351905,2.210323 -1.394055,-0.199766 -2.703174,-0.958161 -3.584329,-2.071611 -0.854288,-1.038788 -1.283137,-2.419505 -1.218386,-3.758254 0.03386,-2.102007 1.389041,-4.1079334 3.307289,-4.9475233 0.682559,-0.2969327 1.414989,-0.494641 2.160017,-0.4599285 0.05208,-1.354e-4 0.104167,-2.729e-4 0.15625,-4.069e-4 z"
     id="path35" />
  <path
     style="fill:#ff6600;fill-rule:evenodd;stroke-width:0"
     d="m 26.095279,74.607016 c -2.279345,1.237571 -4.489081,2.620442 -6.74364,3.894612 -1.833007,-1.577627 -4.077398,-2.738381 -6.506748,-2.986943 -4.2182957,-0.530663 -8.6261833,1.622355 -10.7693888,5.30067 -2.19101512,3.558205 -2.16042851,8.340131 0.1363118,11.842199 1.6812006,2.737675 4.6235257,4.559629 7.7729235,5.068922 4.6488755,0.759233 9.6422585,-1.838021 11.6408945,-6.117525 1.290175,-2.585091 1.484584,-5.643455 0.656557,-8.400375 0.107817,-0.287208 0.653645,-0.370939 0.892322,-0.596737 1.837422,-1.079115 3.710044,-2.112001 5.526766,-3.218655 -0.15603,-0.527218 -0.706715,-0.897049 -0.989381,-1.380876 -0.74174,-0.992941 -1.22372,-2.149965 -1.503638,-3.349857 -0.05143,0.06711 -0.07016,-0.06902 -0.112979,-0.05544 z m -14.45115,6.365189 c 1.521087,-0.05948 3.017021,0.65543 4.065135,1.739762 1.477698,1.664697 1.981178,4.218762 0.985353,6.239166 -1.013905,2.31938 -3.726971,3.713366 -6.197158,3.200817 C 7.5887629,91.670162 5.5044452,88.590661 6.0396786,85.718667 6.3212032,83.818489 7.5903694,82.077566 9.4160061,81.383264 10.115125,81.043945 10.876527,80.969716 11.644129,80.972205 Z"
     id="path36" />
  <path
     style="fill:#ff9800;fill-rule:evenodd;stroke-width:0;fill-opacity:1"
     d="m 83.953393,74.885148 c -0.248274,0.236122 -0.142622,0.695196 -0.326277,1.000123 -0.429659,1.402308 -1.25814,2.641328 -2.245003,3.726006 0.251917,0.458567 1.019462,0.638564 1.471314,0.98739 1.592396,0.975724 3.292966,1.794664 4.808709,2.886314 0.109722,0.367478 -0.154669,0.809255 -0.147895,1.205293 -0.53164,3.073268 0.250041,6.34165 2.184528,8.797408 2.147713,2.771459 5.676081,4.492006 9.200465,4.252222 3.552946,0.0046 6.944036,-2.042897 8.894846,-4.962062 2.41369,-3.553588 2.45006,-8.499354 0.13523,-12.108897 -2.45717,-4.059844 -7.6851,-6.125204 -12.261775,-4.919095 -1.913803,0.453756 -3.575272,1.588425 -5.071013,2.802225 -2.28783,-1.074067 -4.392819,-2.537723 -6.643129,-3.666927 z m 14.546098,6.095688 c 2.539859,-0.148359 4.851159,1.812908 5.437379,4.218395 0.60124,2.098333 -0.22639,4.512241 -1.96246,5.847289 -1.61801,1.363222 -4.088508,1.594642 -5.972541,0.645649 -1.823115,-0.998967 -3.234295,-2.952684 -3.143273,-5.090578 -0.05076,-2.76153 2.241166,-5.435257 5.039364,-5.600039 0.200239,-0.01353 0.400844,-0.02017 0.601531,-0.02072 z"
     id="path37" />
  <path
     style="fill:#ff9800;fill-opacity:1;fill-rule:evenodd;stroke-width:0"
     d="M 54.700264,0.06444984 C 51.510194,0.09690012 48.408592,1.6113544 46.375988,4.0638602 42.982533,7.8957314 42.829446,14.129097 45.996273,18.145364 c 1.455409,1.928055 3.537118,3.365891 5.856882,4.041876 0.04594,2.586404 -0.0294,5.186818 0.118158,7.764862 0.332818,0.328265 0.833371,-0.143761 1.223971,-0.14693 1.388007,-0.338215 2.855045,-0.139865 4.246784,-0.06387 0.27642,-0.484646 0.08319,-1.134811 0.15537,-1.67608 0.0075,-1.906438 0.0026,-3.812899 0.004,-5.719347 2.789695,-0.723913 5.26598,-2.512506 6.815954,-4.943264 C 66.673077,14.012882 66.771571,9.3991432 64.771091,5.8698799 63.806305,4.1051931 62.312362,2.6420936 60.613641,1.5828743 58.830065,0.54879584 56.760928,0.02081 54.700264,0.06444984 Z m 0.1289,5.70093336 c 2.280717,-0.1189795 4.470558,1.385268 5.276063,3.499089 0.734366,1.9875808 0.345125,4.4353098 -1.256874,5.9045428 -1.820806,2.047206 -5.234264,2.210349 -7.327422,0.48961 -2.316572,-1.747994 -2.804382,-5.383449 -1.038678,-7.6747096 0.967704,-1.4028788 2.650356,-2.2240665 4.346911,-2.2185322 z"
     id="path38" />
  <path
     style="fill:#ff9800;fill-opacity:1;fill-rule:evenodd;stroke-width:0"
     d="m 26.059026,74.61488 c -1.599309,0.688932 -3.049663,1.701226 -4.577126,2.538172 -0.70492,0.411993 -1.409675,0.824264 -2.114532,1.236364 -2.255885,-1.887013 -5.134437,-3.192794 -8.125789,-3.017978 -4.2129251,0.120041 -8.2717424,2.7814 -9.8973395,6.697181 -1.57514138,3.536496 -1.20948569,7.873796 1.064215,11.029513 2.3748739,3.435962 6.7808827,5.422244 10.9260385,4.685116 4.247521,-0.612697 7.951878,-3.883687 9.083055,-8.024576 0.57488,-1.836432 0.462605,-3.803288 0.189191,-5.68175 -0.02564,-0.393856 -0.468532,-0.950047 0.09218,-1.093696 1.984619,-1.204375 4.088365,-2.232853 5.978569,-3.58237 C 28.817487,79.001901 28.292,78.685232 28.10492,78.368892 27.247505,77.317395 26.706147,76.07411 26.293803,74.800366 26.246433,74.710706 26.178945,74.595634 26.059022,74.61488 Z m -14.479155,6.439422 c 2.558871,-0.07429 4.95616,1.928554 5.390146,4.444259 0.670481,2.534001 -0.982061,5.298639 -3.360552,6.23082 -1.840982,0.760457 -4.1176532,0.483035 -5.5808745,-0.912761 -1.750934,-1.515009 -2.5355736,-4.12999 -1.5530383,-6.283499 0.8123936,-2.050507 2.8839182,-3.50633 5.1043188,-3.478819 z"
     id="path39" />
  <path
     style="fill:#ffffff;fill-rule:evenodd;stroke-width:0"
     d="m 55.291439,35.813777 c -2.761007,0.950917 -5.208834,2.668116 -7.805198,3.991088 -4.82216,2.72995 -9.723857,5.339243 -14.408897,8.298882 -1.249488,0.766013 -0.442952,2.418711 -0.670201,3.618782 0.01823,7.363308 -0.03637,14.740531 0.02724,22.095168 1.62705,1.679137 3.901647,2.555282 5.813115,3.865435 5.44527,3.152541 10.783516,6.518747 16.402899,9.352919 1.342711,0.578382 2.563798,-0.766733 3.740983,-1.210734 6.310272,-3.61863 12.664693,-7.186986 18.781165,-11.123736 1.024022,-0.844068 0.294019,-2.375959 0.512914,-3.531698 -0.06642,-7.27484 0.142823,-14.557958 -0.138108,-21.827779 -0.02468,-1.325616 -1.714565,-1.553632 -2.520704,-2.29155 -6.449393,-3.84536 -12.878585,-7.753305 -19.541472,-11.216828 -0.06193,-0.02222 -0.128801,-0.02445 -0.193733,-0.01995 z m 7.245236,9.487937 c 2.43261,1.571285 5.043064,3.10009 7.363009,4.710209 -4.831105,2.985326 -9.712521,5.900947 -14.563361,8.858782 -4.932046,-3.020555 -10.022234,-5.969513 -14.841109,-9.06671 4.751942,-3.284876 9.845945,-6.04918 14.759011,-9.084741 2.427484,1.527486 4.854966,3.054973 7.28245,4.58246 z m -24.60833,8.635894 c 5.037419,2.981331 10.064376,5.980871 15.095456,8.973105 -0.0314,5.986841 0.09232,11.984103 -0.114705,17.964242 -5.301328,-2.999233 -10.525014,-6.152377 -15.784072,-9.232057 0,-6.057899 0,-12.115801 0,-18.173702 0.267774,0.156137 0.535548,0.312275 0.803321,0.468412 z m 35.090251,8.839603 c -0.01688,3.059577 -0.03376,6.119153 -0.05064,9.178729 -5.013791,2.949504 -10.03445,6.006071 -15.057094,8.868374 -0.330506,-5.951338 -0.0831,-11.978033 -0.16189,-17.957334 5.099705,-3.061204 10.203158,-6.115874 15.319496,-9.149192 -0.01662,3.019808 -0.03325,6.039616 -0.04987,9.059423 z"
     id="path6" />
  <path
     style="fill:#ffffff;fill-rule:evenodd;stroke-width:0"
     d="m 11.380767,25.285052 c -6.6803369,-0.07825 -12.4738187,6.805283 -11.1375456,13.380246 0.7619561,5.094363 5.4609495,9.273287 10.6449646,9.245484 3.39144,0.183791 6.65014,-1.437536 8.864738,-3.954445 0.942982,-0.08473 2.030557,1.153776 3.028061,1.567997 1.138045,0.603508 2.232242,1.538338 3.396774,1.941819 0.667976,-1.554651 1.548746,-3.016544 2.592572,-4.327345 C 28.628717,42.329484 27.432027,42.176312 26.902386,41.6431 25.425285,40.728918 23.935024,39.835915 22.45041,38.93384 23.902896,33.427515 20.279455,27.133795 14.739064,25.705127 13.649227,25.396089 12.512678,25.260597 11.380767,25.285052 Z m 0.247058,5.429515 c 3.141215,-0.06664 5.987032,2.969056 5.53156,6.132709 -0.124328,3.101786 -3.281466,5.656817 -6.328325,5.120227 C 8.5205605,41.75923 6.516788,39.747534 6.0655736,37.514792 5.6393402,35.062097 6.7623346,32.286456 9.136148,31.284258 c 0.7625658,-0.376447 1.638453,-0.579636 2.491677,-0.569691 z"
     id="path7" />
  <path
     style="fill:#ffffff;fill-rule:evenodd;stroke-width:0"
     d="m 98.029353,25.219068 c -5.402004,0.06238 -10.187863,4.726536 -10.606602,10.062231 -0.04116,1.343462 0.132028,2.747273 0.210996,4.049597 -1.888001,1.574166 -4.389359,2.481497 -6.288846,3.951773 1.064359,1.39548 1.96795,2.9074 2.550756,4.547933 0.542048,0.24396 1.154518,-0.610229 1.704187,-0.749299 1.637179,-0.932057 3.26356,-1.882845 4.895016,-2.824981 2.323039,2.248256 5.540375,3.543627 8.786386,3.251612 5.730094,-0.20019 10.678514,-5.633546 10.317234,-11.366537 0.0505,-5.383635 -4.43569,-10.326215 -9.786432,-10.830165 -0.590303,-0.07938 -1.187363,-0.109336 -1.782695,-0.09216 z m 0.533629,5.546522 c 3.531318,-0.103998 6.444388,3.759024 5.341278,7.130147 -0.60259,2.461684 -3.02796,4.275124 -5.567609,4.087679 -3.188069,0.128943 -6.045434,-3.222472 -5.346278,-6.380252 0.143157,-2.818112 2.873651,-4.906642 5.572609,-4.837574 z"
     id="path8" />
  <path
     style="fill:#ffffff;fill-rule:evenodd;stroke-width:0"
     d="m 52.245416,93.365947 c 0,2.529528 0,5.059056 0,7.588583 -4.237912,1.1804 -7.813769,4.85287 -8.307587,9.31615 -1.082286,6.24157 4.277325,12.73693 10.661924,12.65626 6.04891,0.39962 11.749288,-5.12548 11.389974,-11.21159 0.179947,-4.94792 -3.58574,-9.4388 -8.240755,-10.78806 -0.06876,-2.433028 0.134924,-4.978907 -0.100127,-7.343058 -1.78836,0.04473 -3.710604,-0.0034 -5.403429,-0.218285 z m 2.697303,12.822453 c 3.129541,-0.0609 6.041185,2.95751 5.505857,6.11122 -0.02564,3.01944 -2.992422,5.4321 -5.924014,5.10113 -3.56936,-0.0238 -6.082242,-4.06996 -4.93118,-7.32273 0.698726,-2.31074 2.961669,-3.93824 5.349337,-3.88962 z"
     id="path9" />
</svg>
