<?xml version="1.0" encoding="UTF-8" standalone="no"?>
<svg
   id="Layer_1"
   data-name="Layer 1"
   viewBox="0 0 106.52 122.88"
   version="1.1"
   sodipodi:docname="product-launch-release-icon.svg"
   inkscape:version="1.4 (86a8ad7, 2024-10-11)"
   xmlns:inkscape="http://www.inkscape.org/namespaces/inkscape"
   xmlns:sodipodi="http://sodipodi.sourceforge.net/DTD/sodipodi-0.dtd"
   xmlns="http://www.w3.org/2000/svg"
   xmlns:svg="http://www.w3.org/2000/svg">
  <defs
     id="defs1" />
  <sodipodi:namedview
     id="namedview1"
     pagecolor="#505050"
     bordercolor="#ffffff"
     borderopacity="1"
     inkscape:showpageshadow="0"
     inkscape:pageopacity="0"
     inkscape:pagecheckerboard="1"
     inkscape:deskcolor="#d1d1d1"
     inkscape:zoom="4.7485353"
     inkscape:cx="22.006786"
     inkscape:cy="65.599175"
     inkscape:window-width="2560"
     inkscape:window-height="1369"
     inkscape:window-x="1912"
     inkscape:window-y="-8"
     inkscape:window-maximized="1"
     inkscape:current-layer="Layer_1" />
  <title
     id="title1">product-launch-release</title>
  <path
     d="M50,79.27,15,60.85,6,71.68l8.78,4.63.2.08.18.08.19.12.15.1,27.61,14.6,7-12ZM47,54.42a2.29,2.29,0,0,1,.28-.86,2.36,2.36,0,0,1,.57-.69,2.41,2.41,0,0,1,.81-.42,2.45,2.45,0,0,1,.9-.08,2.28,2.28,0,0,1,.86.27,2.34,2.34,0,0,1,.7.58,2.41,2.41,0,0,1,.51,1.71l-.58,5.24,2.26,2.18,2.49-2.62-.95-4.95a2.17,2.17,0,0,1,0-.88,2.24,2.24,0,0,1,.35-.84,2.33,2.33,0,0,1,.65-.64,2.4,2.4,0,0,1,.84-.34,2.27,2.27,0,0,1,.9,0,2.43,2.43,0,0,1,.84.36,2.33,2.33,0,0,1,.64.65,2.4,2.4,0,0,1,.34.84l1.18,6.13a2.33,2.33,0,0,1,0,.53,2.35,2.35,0,0,1-.09.53,2.41,2.41,0,0,1-.21.5,2,2,0,0,1-.33.44l-5,5.21a2.33,2.33,0,0,1-.74.51,2.25,2.25,0,0,1-.88.19h-.05a2.25,2.25,0,0,1-.85-.16,2.38,2.38,0,0,1-.76-.48l-4.72-4.56a2.3,2.3,0,0,1-.35-.41l0,0a2.46,2.46,0,0,1-.24-.45,3.16,3.16,0,0,1-.13-.53v0a2.26,2.26,0,0,1,0-.52L47,54.42ZM51.94,17a3.71,3.71,0,0,1,.76-.24,4.26,4.26,0,0,1,.8-.08h0a3.67,3.67,0,0,1,.75.08,3.73,3.73,0,0,1,.76.23h0a4.94,4.94,0,0,1,.68.36,3.75,3.75,0,0,1,.61.51,3.83,3.83,0,0,1,.51.62,3.91,3.91,0,0,1,.37.7,3.71,3.71,0,0,1,.24.76,4.23,4.23,0,0,1,.08.79v0a3.67,3.67,0,0,1-.08.75v0a3.53,3.53,0,0,1-.22.72,3.48,3.48,0,0,1-.38.71,3.25,3.25,0,0,1-.5.61,3.83,3.83,0,0,1-.62.51,3.91,3.91,0,0,1-.7.37,3.71,3.71,0,0,1-.76.24h0a4.11,4.11,0,0,1-.77.08h0a3.67,3.67,0,0,1-.75-.08h-.05a3.64,3.64,0,0,1-.71-.22,4,4,0,0,1-.71-.37,4.23,4.23,0,0,1-.61-.51l0,0a3.87,3.87,0,0,1-.48-.59,3.91,3.91,0,0,1-.37-.7v0a4.2,4.2,0,0,1-.23-.74,4.26,4.26,0,0,1-.08-.8v0a3.67,3.67,0,0,1,.08-.75v0a3.64,3.64,0,0,1,.22-.71v0a4.94,4.94,0,0,1,.36-.68,4.23,4.23,0,0,1,.51-.61,3.83,3.83,0,0,1,.62-.51,3.91,3.91,0,0,1,.7-.37ZM43.45,35.36c-.28-.61-.55-1.22-.79-1.82s-.56-1.41-.8-2.09-.5-1.47-.7-2.2-.39-1.45-.54-2.16-.3-1.6-.39-2.38a22.64,22.64,0,0,1-.18-2.32,21.7,21.7,0,0,1,.05-2.29,20.75,20.75,0,0,1,.27-2.24,22.31,22.31,0,0,1,.52-2.29c.22-.75.47-1.5.77-2.24a24.22,24.22,0,0,1,1-2.2l0,0A24.75,24.75,0,0,1,44,9c.45-.69.94-1.39,1.48-2.07s1.11-1.38,1.71-2.05,1.26-1.35,2-2,1.42-1.34,2.19-2A3,3,0,0,1,51.8.46a3.2,3.2,0,0,1,.56-.27h0A3.06,3.06,0,0,1,53,0h0a5.07,5.07,0,0,1,.55,0,4,4,0,0,1,.59.07,3.14,3.14,0,0,1,1.08.42,3,3,0,0,1,.45.34c.85.71,1.65,1.42,2.4,2.14s1.45,1.44,2.09,2.16S61.42,6.58,62,7.31l0,0c.54.72,1,1.44,1.48,2.17s.86,1.5,1.23,2.26a24.66,24.66,0,0,1,1,2.29q.4,1.15.69,2.31a22.62,22.62,0,0,1,.42,2.35l0,.11c.09.73.14,1.46.17,2.19s0,1.5,0,2.24-.12,1.52-.23,2.27-.24,1.53-.4,2.29-.32,1.36-.51,2.07-.41,1.41-.63,2.08-.44,1.28-.7,2-.43,1.13-.66,1.71c.44.44.9.88,1.37,1.32a49.39,49.39,0,0,1,3.46,3.53,3.92,3.92,0,0,1,.25.32,2.12,2.12,0,0,1,.21.36,1.84,1.84,0,0,1,.17.38,2.22,2.22,0,0,1,.12.39c0,.13,0,.27.07.42a3.09,3.09,0,0,1,0,.43,2.77,2.77,0,0,1,0,.42v0a3.21,3.21,0,0,1-.08.36L68.76,46c-.37,1.61-.74,3.24-1.16,4.88h0a3.43,3.43,0,0,1-.22.59,4.21,4.21,0,0,1-.33.55l0,0a2.72,2.72,0,0,1-.4.43,3.14,3.14,0,0,1-.5.38,3,3,0,0,1-.57.28,3,3,0,0,1-.6.17,2.6,2.6,0,0,1-.62,0,3.94,3.94,0,0,1-.6,0l-.22-.05-.3-.1a3.28,3.28,0,0,1-1-.55,39.27,39.27,0,0,0-4.67-3.2,7.84,7.84,0,0,0-3.27-1.07,8.26,8.26,0,0,0-3.26.63c-1.26.47-2.75,1.2-4.62,2.11a.7.7,0,0,1-.19.06l-.05,0-.31.18h0l-.45.23-1.78.86a3.12,3.12,0,0,1-.62.23,4.63,4.63,0,0,1-.65.1,3.3,3.3,0,0,1-1.29-.19,3.43,3.43,0,0,1-1.12-.67,3.45,3.45,0,0,1-.45-.48v0a4.09,4.09,0,0,1-.33-.54,3.58,3.58,0,0,1-.28-.9c-.49-2.2-1-5-1.28-7.25a2.43,2.43,0,0,1,0-.38h0a2.67,2.67,0,0,1,0-.4v0l.06-.39c0-.14.07-.27.11-.4s.1-.26.16-.39a2.58,2.58,0,0,1,.22-.37l0,0a3.55,3.55,0,0,1,.23-.31l.3-.3,4.8-4.37Zm1.72-9.22c.15.68.32,1.37.52,2.06s.44,1.41.71,2.14.57,1.48.9,2.23.68,1.51,1.08,2.31l0,0a2.44,2.44,0,0,1,.2.7,2.3,2.3,0,0,1-.74,2L42.3,42.7l.85,4.83c.42-.21.87-.45,1.3-.64,2.24-1.08,4-2,5.6-2.53a11.25,11.25,0,0,1,4.46-.84,10.22,10.22,0,0,1,4.29,1.23,34.78,34.78,0,0,1,4.75,3.06l1.11-4.69-5.28-5.28-.07-.08a2.36,2.36,0,0,1-.36-.53,2.12,2.12,0,0,1-.2-.6v-.05a2,2,0,0,1,0-.65,2.3,2.3,0,0,1,.17-.66l0,0c.32-.75.62-1.47.89-2.16s.53-1.4.77-2.12.46-1.39.65-2.07.36-1.36.5-2,.26-1.3.35-1.93.15-1.27.19-1.9.05-1.24,0-1.85a15.75,15.75,0,0,0-.14-1.82v-.06a17.49,17.49,0,0,0-.89-3.69,19.29,19.29,0,0,0-.76-1.84,20.66,20.66,0,0,0-1-1.83c-.38-.61-.79-1.22-1.25-1.83s-1-1.22-1.5-1.84-1.07-1.15-1.66-1.72-1-1-1.58-1.47c-.5.45-1,.9-1.42,1.34S51,7.48,50.54,8s-1,1.16-1.46,1.74-.86,1.15-1.23,1.74-.73,1.16-1,1.75S46.23,14.44,46,15a16.41,16.41,0,0,0-.61,1.79A14.52,14.52,0,0,0,45,18.64a15.79,15.79,0,0,0-.22,1.8c0,.62-.06,1.23,0,1.85s.07,1.24.15,1.89.19,1.31.32,2ZM93,55.63a1.71,1.71,0,0,1,.35.21,2,2,0,0,1,.31.27,3.11,3.11,0,0,1,.23.28,2.2,2.2,0,0,1,.15.26L106,70.9a2.19,2.19,0,0,1,.43.79,2.14,2.14,0,0,1,.1.9,2.28,2.28,0,0,1-.25.88l0,0a2.35,2.35,0,0,1-.55.67l-.23.17a1.71,1.71,0,0,1-.23.13L95,79.86v20.67a2.13,2.13,0,0,1-.1.67,2.34,2.34,0,0,1-.29.62,2.15,2.15,0,0,1-.45.5,2.5,2.5,0,0,1-.56.35L55,122.25a1.44,1.44,0,0,1-.27.22,2.71,2.71,0,0,1-.37.21,2.47,2.47,0,0,1-.46.15h0a2.4,2.4,0,0,1-.46,0,2.18,2.18,0,0,1-.63-.09,2.38,2.38,0,0,1-.59-.25,2.31,2.31,0,0,1-.42-.34l0,0a2,2,0,0,1-.23-.27L13,102.61a2.75,2.75,0,0,1-.53-.36,2.44,2.44,0,0,1-.4-.5,2.08,2.08,0,0,1-.25-.52,2.56,2.56,0,0,1-.1-.54V80L1.19,74.42a2.6,2.6,0,0,1-.38-.27,2.32,2.32,0,0,1-.54-.68A2.35,2.35,0,0,1,0,72.59a2.14,2.14,0,0,1,.1-.9,2.35,2.35,0,0,1,.43-.79L12.66,56.4a.67.67,0,0,1,.14-.15l.19-.17.18-.12.14-.08a2.4,2.4,0,0,1,.26-.18l.14-.07,18.54-9.21a2.32,2.32,0,0,1,.87-.24,2.26,2.26,0,0,1,.9.12,2.39,2.39,0,0,1,.79.45,2.46,2.46,0,0,1,.55.72v0a2.5,2.5,0,0,1,.23.87,2.66,2.66,0,0,1-.12.89A2.44,2.44,0,0,1,35,50a2.22,2.22,0,0,1-.72.55L19.48,58,53.26,75.71,87.15,57.9,72.5,50.62a2.34,2.34,0,0,1-.72-.55,2.44,2.44,0,0,1-.46-.79,2.48,2.48,0,0,1-.11-.9,2.17,2.17,0,0,1,.23-.88,2.46,2.46,0,0,1,.55-.72,2.49,2.49,0,0,1,.79-.45,2.28,2.28,0,0,1,.9-.12,2.42,2.42,0,0,1,.88.24L93,55.63Zm-41.9,60.86V86.64L46,95.55a2.27,2.27,0,0,1-.57.66,2.44,2.44,0,0,1-.78.41h0a2.25,2.25,0,0,1-.86.08,2.49,2.49,0,0,1-.86-.25l-26.51-14V99.1l34.78,17.39Zm4.66-29.16v29.33L90.37,99.11V82.33L63.66,96.45a2.49,2.49,0,0,1-.86.25h0a2.36,2.36,0,0,1-.88-.08,2.51,2.51,0,0,1-.79-.42,2.31,2.31,0,0,1-.57-.67l-4.76-8.2ZM91.52,60.85l-35,18.42,7,12,37.11-19.61-9-10.83Z"
     id="path1" />
  <path
     style="fill:#ff9800;fill-rule:evenodd;stroke-width:0"
     d="M 53.17203,-0.04236504 C 51.790704,-0.04037438 50.947482,1.2698539 49.965037,2.0394859 46.458833,5.2059017 43.36253,8.964542 41.558251,13.367815 c -1.060635,2.645788 -1.632875,5.489188 -1.544884,8.344267 -0.126192,4.361397 1.194073,8.611147 2.862818,12.591403 0.141976,0.353921 0.325945,0.713157 0.436102,1.063918 -1.733395,1.698542 -3.65844,3.21642 -5.273625,5.027454 -0.933699,1.498689 -0.283637,3.319965 -0.116711,4.932125 0.348513,1.831817 0.543177,3.72218 1.18612,5.479803 0.584141,1.214583 1.886323,2.132682 3.273213,1.939876 1.048869,0.131323 1.882704,-0.679735 2.823557,-1.01764 2.427063,-1.097163 4.804799,-2.469549 7.370787,-3.144343 2.002771,-0.458706 4.063061,0.203856 5.702364,1.363021 1.696839,0.989915 3.187874,2.289154 4.890952,3.259292 1.821804,0.71538 4.221684,-0.49022 4.531456,-2.478249 0.606122,-2.367854 1.19843,-4.739296 1.799444,-7.106326 0.208334,-1.090278 0.09046,-2.317592 -0.740122,-3.134587 -1.500384,-1.707668 -3.176857,-3.250317 -4.760546,-4.879193 1.938988,-5.044737 3.555549,-10.43164 3.003393,-15.896554 C 66.626841,14.358898 64.049858,9.3787305 60.529916,5.4107531 58.894382,3.5972118 57.163967,1.8305124 55.178199,0.39958868 54.584735,0.00481324 53.864439,-0.04966398 53.17203,-0.04236504 Z m 0.362364,5.36760914 c 2.867303,2.5212634 5.437461,5.4984739 7.044525,8.9912589 1.274361,2.750233 1.724698,5.782909 1.560308,8.794858 -0.224524,4.164235 -1.652973,8.145519 -3.235373,11.977584 -0.39842,0.917845 -0.360661,2.08641 0.447272,2.775126 1.64308,1.875002 3.567641,3.489707 5.14224,5.417779 -0.282637,1.437715 -0.636732,2.862218 -1.016555,4.278663 -2.230076,-1.411796 -4.381712,-3.106138 -6.963496,-3.824781 -2.538274,-0.574787 -5.222829,-0.137404 -7.564291,0.954219 -1.942943,0.81265 -3.802666,1.812944 -5.745529,2.61411 -0.216249,-1.486809 -0.561093,-2.99442 -0.752493,-4.46108 1.814014,-2.035107 4.073376,-3.654001 5.84473,-5.735115 0.756691,-0.996794 0.197969,-2.260566 -0.290963,-3.235132 -1.722706,-3.548814 -2.982134,-7.388988 -3.051227,-11.355206 -0.275632,-3.224566 0.502286,-6.470919 2.026002,-9.31231 1.610842,-3.05012 3.929431,-5.6632944 6.542306,-7.8867605 z"
     id="path2" />
  <path
     style="fill:#ff9800;fill-rule:evenodd;stroke-width:0"
     d="m 57.111361,51.97203 c -1.239504,-0.053 -2.25084,1.022814 -2.403496,2.198457 0.199178,1.839224 0.695434,3.664 0.929357,5.482571 -0.681246,0.913278 -1.525372,1.690047 -2.29491,2.526684 -0.804682,-0.617055 -1.487412,-1.37229 -2.197429,-2.091517 0.180885,-1.949017 0.546388,-3.895994 0.537584,-5.855424 -0.264112,-1.722363 -2.645137,-2.589148 -3.924113,-1.375836 -1.040757,0.801245 -0.844297,2.232741 -1.071671,3.377892 -0.16422,1.742822 -0.515458,3.485219 -0.483496,5.237841 0.04798,0.952628 1.002829,1.474435 1.538237,2.155568 1.494372,1.420052 2.886792,2.972417 4.535799,4.215845 0.679529,0.296628 1.535436,0.237069 2.1964,-0.08267 2.068382,-1.948882 4.048953,-4.001141 5.924113,-6.136555 0.57527,-1.064632 0.04254,-2.318525 -0.07013,-3.432596 -0.339228,-1.613369 -0.550463,-3.267362 -1.016761,-4.847301 -0.432315,-0.79501 -1.246024,-1.463877 -2.199486,-1.372956 z"
     id="path3" />
  <path
     style="fill:#ff9800;fill-rule:evenodd;stroke-width:0"
     d="m 53.219947,16.599074 c -1.161613,0.09062 -2.222919,0.809069 -2.973367,1.666221 -1.46309,1.795358 -0.89961,4.732384 1.068175,5.920206 1.717288,1.123817 4.235097,0.594022 5.435681,-1.048843 1.375136,-1.724815 0.935358,-4.492928 -0.875682,-5.737584 -0.766876,-0.541377 -1.713976,-0.84205 -2.654807,-0.8 z"
     id="path4" />
  <path
     style="fill:#ffffff;fill-rule:evenodd;stroke-width:0"
     d="m 33.187455,46.125243 c -5.225117,2.084288 -10.160864,4.862918 -15.228672,7.306221 -1.777521,1.030581 -3.869532,1.660922 -5.459314,2.930719 -4.0471978,4.932419 -8.2588407,9.742807 -12.17288804,14.777351 -0.68392197,1.176837 -0.30502324,2.909792 1.07804624,3.377688 3.3212023,1.96607 6.78039,3.683995 10.1832388,5.501697 0.08557,6.994177 -0.185609,14.002105 0.183033,20.987971 0.184961,1.49218 2.094208,1.77051 3.103875,2.5374 12.205924,6.32171 24.626659,12.24754 36.798231,18.62126 0.873777,0.8764 2.213576,0.97978 3.229436,0.28324 13.142286,-6.76264 26.432959,-13.24792 39.448611,-20.25157 1.317646,-1.35842 0.546543,-3.457289 0.796827,-5.138898 0.0581,-5.727732 0.02695,-11.455858 0.03566,-17.183774 3.63836,-2.014769 7.498041,-3.702889 10.935111,-6.04545 0.87375,-1.106486 0.38849,-2.685095 -0.57838,-3.572021 -3.87179,-4.727029 -7.842684,-9.383113 -11.746962,-14.07569 -4.748278,-2.879194 -9.870666,-5.100683 -14.824922,-7.601858 -1.887888,-0.810715 -3.694403,-1.948426 -5.687571,-2.451818 -1.792679,0.213333 -2.928472,2.84211 -1.37419,4.058817 4.797772,2.897409 9.992584,5.072989 14.915784,7.745398 C 75.642992,63.837014 64.463617,69.766033 53.228997,75.573468 42.122553,69.70076 30.928268,63.987281 19.872082,58.023649 c 5.045204,-2.800872 10.391572,-5.082201 15.289253,-8.134499 0.838532,-1.225529 0.507049,-3.323692 -1.163186,-3.624884 -0.261584,-0.08412 -0.53486,-0.141394 -0.810694,-0.139023 z m 58.327606,14.916195 c 3.085965,3.401717 6.01689,6.961335 8.762979,10.642673 C 88.079935,78.24665 75.785742,84.630181 63.572235,91.164212 61.320656,87.21197 58.87049,83.363259 56.830436,79.295833 68.351595,73.144767 79.903795,67.049588 91.489148,61.020461 Z m -76.37429,0.06622 C 26.71317,67.107415 38.299667,73.163805 49.756707,79.333263 47.741538,83.368653 45.389921,87.35898 43.003804,91.127607 30.719298,84.634081 18.446632,78.116981 6.1556811,71.635165 9.1396141,68.124758 11.982601,64.4898 15.081953,61.080101 Z M 90.15897,82.624162 c 0.366096,3.168739 0.0565,6.416023 0.130132,9.612307 -0.015,2.276068 -0.02999,4.552139 -0.04499,6.828207 -11.433547,5.786034 -22.833403,11.639854 -34.305398,17.349104 -0.180976,-9.31491 -0.202736,-18.639138 -0.01234,-27.953936 -0.06689,-1.158326 0.48966,0.279783 0.749056,0.599892 1.537108,2.435789 2.764328,5.109399 4.616497,7.325659 1.359245,0.928928 2.924576,-0.421627 4.210178,-0.862929 8.284608,-4.169713 16.399678,-8.678131 24.656865,-12.898304 z m -73.522261,0.16329 c 8.751614,4.319901 17.207072,9.244224 26.025705,13.431363 1.008324,0.576607 2.566684,0.794279 3.155127,-0.480813 1.827635,-2.613 3.370408,-5.866614 4.999937,-8.299857 0.2897,8.784501 0.124525,17.583465 0.08103,26.372855 -0.187595,0.60955 0.288718,2.30603 -0.327815,2.26056 -11.411734,-5.62609 -22.768461,-11.36332 -34.149922,-17.050483 0.08498,-5.390252 -0.18126,-10.834509 0.173984,-16.193728 0.01843,0.0032 -7.29e-4,-0.09095 0.04195,-0.0399 z"
     id="path5" />
</svg>
