<?xml version="1.0" encoding="UTF-8" standalone="no"?>
<svg
   version="1.1"
   id="Layer_1"
   x="0px"
   y="0px"
   width="122.88px"
   height="119.853px"
   viewBox="0 0 122.88 119.853"
   enable-background="new 0 0 122.88 119.853"
   xml:space="preserve"
   sodipodi:docname="target-icon.svg"
   inkscape:version="1.4 (86a8ad7, 2024-10-11)"
   xmlns:inkscape="http://www.inkscape.org/namespaces/inkscape"
   xmlns:sodipodi="http://sodipodi.sourceforge.net/DTD/sodipodi-0.dtd"
   xmlns="http://www.w3.org/2000/svg"
   xmlns:svg="http://www.w3.org/2000/svg"><defs
     id="defs1" /><sodipodi:namedview
     id="namedview1"
     pagecolor="#505050"
     bordercolor="#ffffff"
     borderopacity="1"
     inkscape:showpageshadow="0"
     inkscape:pageopacity="0"
     inkscape:pagecheckerboard="1"
     inkscape:deskcolor="#d1d1d1"
     inkscape:zoom="4.868464"
     inkscape:cx="33.17268"
     inkscape:cy="64.394027"
     inkscape:window-width="2560"
     inkscape:window-height="1369"
     inkscape:window-x="1912"
     inkscape:window-y="-8"
     inkscape:window-maximized="1"
     inkscape:current-layer="Layer_1" /><g
     id="g1"><path
       d="M59.927,0h0.009v0.002c5.902,0.001,11.606,0.855,16.99,2.446c0.861,0.254,1.73,0.534,2.605,0.836 c4.428,1.532,8.614,3.565,12.491,6.029c0.273,0.173,0.354,0.535,0.182,0.808c-0.018,0.027-0.039,0.054-0.06,0.078l-4.288,5.498 c-0.19,0.244-0.536,0.296-0.788,0.125l-0.01-0.006c-1.09-0.673-2.216-1.31-3.372-1.909c-1.165-0.602-2.349-1.16-3.55-1.669 l-0.002-0.001v0.001c-6.206-2.633-13.035-4.09-20.208-4.09h-0.006V8.146c-7.146,0-13.958,1.451-20.152,4.071 c-1.012,0.428-2.005,0.886-2.975,1.371c-5.007,2.504-9.555,5.801-13.48,9.726l-0.004,0.004l-0.027,0.025 c-1.302,1.304-2.535,2.677-3.692,4.113c-1.164,1.445-2.255,2.956-3.262,4.524c-5.177,8.06-8.181,17.652-8.181,27.946v0.006H8.145 c0,7.146,1.451,13.958,4.071,20.152c0.428,1.013,0.886,2.005,1.371,2.975c2.504,5.006,5.801,9.555,9.727,13.48l0.004,0.004 l0.022,0.023c1.304,1.303,2.679,2.537,4.116,3.695c1.445,1.165,2.956,2.255,4.525,3.262c8.06,5.177,17.653,8.181,27.946,8.181 h0.006v0.003c7.148-0.001,13.958-1.451,20.152-4.071c1.013-0.428,2.005-0.886,2.975-1.371c5.007-2.504,9.556-5.801,13.48-9.726 l0.005-0.005l0.03-0.029c1.3-1.303,2.532-2.674,3.688-4.108c1.165-1.445,2.255-2.957,3.262-4.525 c5.178-8.06,8.181-17.652,8.181-27.945v-0.01h0.003c-0.001-4.319-0.532-8.521-1.533-12.537c-0.166-0.669-0.341-1.318-0.523-1.946 c-0.962-3.307-2.247-6.479-3.814-9.478c-0.136-0.259-0.058-0.573,0.172-0.741l5.541-4.381c0.252-0.2,0.619-0.157,0.818,0.096 c0.018,0.022,0.033,0.046,0.046,0.07L112.418,31l0.004,0.008l0.006,0.012l0.001,0c0.661,1.198,1.285,2.425,1.866,3.676 c0.582,1.252,1.121,2.525,1.615,3.814c2.547,6.652,3.943,13.874,3.943,21.418v0.006h-0.002c-0.001,8.271-1.679,16.154-4.711,23.321 c-0.491,1.163-1.021,2.312-1.588,3.443c-2.903,5.805-6.717,11.069-11.251,15.604l-0.004,0.004l-0.022,0.02 c-1.512,1.511-3.105,2.94-4.771,4.283c-1.673,1.349-3.421,2.609-5.234,3.774c-9.33,5.992-20.433,9.471-32.344,9.471h-0.006v-0.002 c-8.271-0.001-16.154-1.679-23.321-4.711c-1.163-0.491-2.312-1.022-3.444-1.589c-5.804-2.902-11.069-6.717-15.604-11.25 l-0.004-0.005l-0.028-0.029c-1.508-1.51-2.935-3.1-4.275-4.763c-1.348-1.673-2.609-3.421-3.773-5.234 C3.479,82.939,0,71.837,0,59.927V59.92h0.002c0.001-8.271,1.679-16.153,4.71-23.321c0.492-1.163,1.022-2.311,1.589-3.444 c2.902-5.804,6.717-11.068,11.25-15.603l0.004-0.004l0.026-0.023c1.51-1.509,3.103-2.938,4.766-4.279 c1.674-1.348,3.421-2.609,5.235-3.773C36.915,3.478,48.017,0,59.927,0L59.927,0z M93.067,16.299l16.77-16.024l1.117,10.807 l11.926,1.491l-17.958,17.401l-8.738,0.75L61.316,63.154l-3.213-2.767l33.027-34.5L93.067,16.299L93.067,16.299z M59.927,40.958 h0.015v0.002c1.128,0.001,2.226,0.098,3.283,0.284c0.123,0.022,0.297,0.055,0.517,0.1h0.003l0,0c0.88,0.18,1.742,0.423,2.579,0.723 c0.304,0.108,0.462,0.442,0.353,0.746c-0.021,0.06-0.053,0.114-0.09,0.162l0.001,0.001l-4.681,6.004 c-0.131,0.169-0.339,0.244-0.538,0.218V49.2l-0.027-0.004v0.001l-0.208-0.025l-0.018-0.003l-0.18-0.019l-0.015-0.002 c-0.312-0.027-0.643-0.042-0.994-0.042h-0.006v-0.003c-1.491,0.001-2.915,0.305-4.209,0.853c-0.214,0.091-0.422,0.187-0.621,0.286 c-1.042,0.521-1.992,1.21-2.815,2.033l-0.004,0.004l-0.027,0.024c-0.264,0.266-0.514,0.547-0.75,0.84 c-0.243,0.301-0.471,0.618-0.682,0.946c-1.08,1.682-1.706,3.687-1.706,5.837v0.006h-0.003c0.001,1.493,0.305,2.916,0.853,4.209 c0.091,0.215,0.187,0.423,0.286,0.621c0.521,1.043,1.211,1.992,2.033,2.814l0.004,0.005l0.024,0.025 c0.266,0.264,0.547,0.516,0.84,0.751c0.301,0.243,0.618,0.472,0.946,0.683c1.683,1.079,3.688,1.706,5.837,1.706h0.006v0.002 c1.493,0,2.917-0.304,4.209-0.852c0.215-0.091,0.422-0.187,0.621-0.286c1.043-0.522,1.992-1.211,2.814-2.034l0.005-0.005 l0.02-0.019c0.146-0.147,0.288-0.296,0.419-0.443s0.268-0.312,0.408-0.49c0.678-0.86,1.229-1.824,1.621-2.861 c0.045-0.121,0.126-0.219,0.227-0.284l7.564-5.982c0.253-0.2,0.619-0.157,0.819,0.096c0.07,0.089,0.109,0.192,0.121,0.297h0.003 l0.005,0.045l0.002,0.031l0.024,0.25v0.007h0.002l0.022,0.272v0.005c0.035,0.48,0.055,0.957,0.055,1.431v0.006h-0.003 c-0.001,2.617-0.532,5.111-1.491,7.379c-0.154,0.365-0.323,0.729-0.503,1.09c-0.921,1.839-2.127,3.506-3.56,4.938l-0.004,0.004 l-0.032,0.027c-0.472,0.47-0.968,0.917-1.485,1.334c-0.53,0.426-1.084,0.826-1.656,1.193c-2.954,1.896-6.466,2.997-10.234,2.997 h-0.006v-0.003c-2.617-0.001-5.111-0.532-7.378-1.491c-0.365-0.154-0.73-0.323-1.09-0.503c-1.839-0.921-3.506-2.127-4.938-3.559 l-0.004-0.004l-0.033-0.036c-0.468-0.471-0.912-0.966-1.328-1.482c-0.427-0.53-0.826-1.083-1.194-1.656 c-1.896-2.953-2.997-6.466-2.997-10.233V59.92h0.002c0.001-2.616,0.533-5.11,1.491-7.377c0.155-0.365,0.323-0.729,0.503-1.09 c0.919-1.836,2.125-3.502,3.559-4.936l0.001-0.001l-0.001-0.001l0.004-0.004c0.475-0.474,0.982-0.929,1.518-1.361 c0.53-0.427,1.083-0.826,1.656-1.194C52.647,42.059,56.161,40.958,59.927,40.958L59.927,40.958z M60.92,49.148 c-0.307-0.038-0.531-0.31-0.512-0.618L60.92,49.148L60.92,49.148z M59.927,20.31h0.01v0.002c3.544,0.001,6.977,0.467,10.238,1.338 c0.531,0.142,1.059,0.295,1.582,0.459c2.685,0.838,5.251,1.958,7.661,3.323c0.28,0.159,0.379,0.516,0.22,0.796 c-0.015,0.024-0.03,0.049-0.048,0.071l-0.003,0.003l-4.344,5.572c-0.182,0.232-0.505,0.29-0.753,0.147l-0.014-0.007 c-0.588-0.307-1.201-0.604-1.838-0.884c-0.641-0.283-1.285-0.543-1.931-0.779c-3.359-1.226-6.991-1.895-10.781-1.895h-0.006v-0.002 c-4.343,0-8.482,0.883-12.247,2.475c-0.594,0.252-1.198,0.531-1.808,0.835l-0.046,0.021c-3.023,1.519-5.771,3.514-8.146,5.888 l-0.004,0.004L37.646,37.7c-0.787,0.789-1.534,1.623-2.235,2.493c-0.707,0.878-1.37,1.797-1.982,2.75 c-3.145,4.898-4.97,10.728-4.97,16.983v0.006h-0.002c0,4.343,0.883,8.483,2.475,12.247c0.26,0.616,0.539,1.22,0.833,1.808 c1.521,3.041,3.525,5.805,5.911,8.191l0.004,0.004c0.802,0.803,1.643,1.559,2.515,2.261c0.878,0.707,1.797,1.37,2.75,1.982 c4.898,3.146,10.729,4.97,16.983,4.97h0.006v0.002c4.343,0,8.483-0.882,12.248-2.474c0.616-0.261,1.22-0.539,1.808-0.834 c3.041-1.521,5.805-3.524,8.191-5.911l0.004-0.004c0.803-0.803,1.559-1.643,2.261-2.515c0.707-0.879,1.37-1.797,1.982-2.751 c3.147-4.899,4.972-10.729,4.972-16.982h-0.002v-0.015h0.002c0-1.941-0.178-3.845-0.516-5.691c-0.051-0.276-0.111-0.578-0.18-0.899 c-0.327-1.535-0.766-3.024-1.303-4.456c-0.096-0.257,0-0.539,0.217-0.687l5.663-4.478c0.253-0.2,0.619-0.157,0.818,0.096 c0.03,0.039,0.054,0.078,0.073,0.12l0.001,0l0.004,0.01l0.004,0.008l0.001-0.001c0.295,0.669,0.579,1.365,0.85,2.086 c0.267,0.712,0.513,1.427,0.734,2.143c1.155,3.719,1.778,7.67,1.778,11.763v0.006h-0.003c0,5.467-1.109,10.678-3.113,15.415 c-0.324,0.767-0.676,1.527-1.051,2.277c-1.919,3.838-4.44,7.318-7.437,10.314l-0.005,0.004l-0.022,0.021 c-0.998,0.995-2.048,1.939-3.146,2.824c-1.106,0.892-2.262,1.725-3.46,2.494c-6.17,3.962-13.509,6.261-21.381,6.261h-0.006V99.54 c-5.467-0.001-10.678-1.109-15.416-3.113c-0.767-0.325-1.527-0.676-2.277-1.051c-3.837-1.92-7.318-4.44-10.315-7.437l-0.004-0.004 l-0.028-0.03c-0.993-0.995-1.934-2.043-2.816-3.139c-0.892-1.106-1.725-2.262-2.495-3.46c-3.962-6.169-6.261-13.509-6.261-21.38 V59.92h0.002c0.001-5.467,1.111-10.678,3.115-15.416c0.324-0.767,0.675-1.527,1.05-2.277c1.918-3.835,4.439-7.314,7.436-10.312 l0.001-0.001l-0.001-0.001l0.004-0.004l0.026-0.024c0.996-0.995,2.046-1.937,3.142-2.82c1.107-0.892,2.262-1.725,3.46-2.494 C44.715,22.609,52.056,20.31,59.927,20.31L59.927,20.31z"
       id="path1" /></g><path
     style="fill:#ff9800;fill-rule:evenodd;stroke-width:0;fill-opacity:1"
     d="m 59.411385,20.228042 c -10.407265,0.09642 -20.690577,4.498471 -27.924058,11.98542 -6.850423,6.981431 -10.949694,16.568852 -11.243238,26.347022 -0.389728,10.017121 3.240905,20.100991 9.889262,27.59853 6.877113,7.87811 16.975872,12.835828 27.421803,13.411782 10.446727,0.629074 21.110449,-3.027962 28.861034,-10.087688 5.771558,-5.090943 9.91411,-11.937992 11.884716,-19.367622 1.50743,-5.502326 1.63681,-11.336483 0.753575,-16.954669 -0.548876,-3.157695 -1.4571,-6.266621 -2.776359,-9.188802 -0.152431,-0.410363 -0.696077,-0.659231 -1.024611,-0.276613 -1.985267,1.45498 -3.965342,2.938857 -5.781589,4.601522 -0.377098,0.429916 0.0945,1.035003 0.149439,1.51064 1.727876,4.959355 2.020145,10.353504 1.209902,15.513689 -1.661814,9.780675 -8.275807,18.564473 -17.237974,22.842986 -3.355541,1.59808 -6.989735,2.646243 -10.698065,2.978992 -3.491498,0.218076 -7.035599,0.1287 -10.438073,-0.753012 -6.320134,-1.57856 -12.157445,-5.114555 -16.370693,-10.102332 -4.775501,-5.54963 -7.527035,-12.807991 -7.49564,-20.131112 -0.154162,-8.951854 3.85089,-17.859737 10.588933,-23.753916 5.33621,-4.661571 12.267413,-7.567467 19.35983,-7.787785 3.162909,-0.05748 6.353066,0.129674 9.415732,0.995034 2.277375,0.560428 4.438564,1.484582 6.544412,2.499047 0.648739,0.32382 1.052042,-0.583899 1.419571,-0.946982 1.294629,-1.674373 2.660249,-3.307542 3.848911,-5.056058 C 79.907487,25.462726 79.07159,25.196499 78.655673,24.911308 72.767974,21.767646 66.08956,20.114822 59.411385,20.228042 Z"
     id="path2" /><path
     style="fill:#ff9800;fill-opacity:1;fill-rule:evenodd;stroke-width:0"
     d="m 109.77298,0.30068358 c -4.40365,4.03175962 -8.6796,8.21104222 -13.002942,12.33229042 -1.25489,1.257189 -2.624504,2.431669 -3.799036,3.752376 -0.690311,3.135011 -1.287956,6.289711 -1.929069,9.435125 -10.952139,11.496999 -21.995916,22.907549 -32.887241,34.461869 -0.07889,0.388276 0.52245,0.612643 0.716575,0.906455 0.773188,0.688097 1.545792,1.38433 2.374909,2.003496 0.617591,-0.316608 1.086987,-0.956183 1.64483,-1.394744 10.932764,-10.069014 21.742051,-20.274242 32.687388,-30.329097 0.381915,-0.358502 0.768119,-0.778744 1.345461,-0.706374 2.683673,-0.266407 5.391165,-0.420236 8.066865,-0.726418 5.79044,-5.645124 11.65889,-11.211878 17.37847,-16.928747 0.12372,-0.145131 0.59735,-0.529748 0.20902,-0.64008 -3.8283,-0.545171 -7.6742,-0.963457 -11.50642,-1.474533 -0.42727,-3.5370598 -0.71764,-7.0931074 -1.16984,-10.62783098 -0.0509,0.0628932 -0.0821,-0.0832441 -0.12897,-0.0637874 z"
     id="path3" /><path
     style="fill:#ffffff;fill-rule:evenodd;stroke-width:0"
     d="M 59.57025,0.04573439 C 53.575658,-0.04291723 47.594718,0.85765833 41.883159,2.6735091 22.888355,8.5464282 7.4433809,24.514539 2.1499263,43.671554 0.05469834,50.57999 -0.18209637,57.872596 0.158932,65.03345 c 1.3275098,17.397514 10.850288,33.900892 25.147561,43.87791 9.372157,6.59273 20.66538,10.60477 32.145936,10.94204 6.1413,0.1154 12.331491,-0.31923 18.253385,-2.04747 15.252172,-4.0601 28.594576,-14.4964 36.377196,-28.205627 4.40422,-7.730362 7.06847,-16.476622 7.68203,-25.351735 0.30612,-7.462311 -0.13729,-15.053721 -2.54257,-22.178541 -1.33199,-3.791773 -2.63049,-7.691895 -4.85708,-11.064915 -0.66114,-0.787686 -1.50923,0.537017 -2.13306,0.77989 -1.5095,1.229298 -3.2426,2.315788 -4.44507,3.850917 0.98766,2.793027 2.45623,5.424726 3.25718,8.298786 1.57733,4.853097 2.53701,9.906683 2.41082,15.023741 0.12418,4.910446 -0.28989,9.827841 -1.66423,14.555981 -3.91809,14.477221 -14.409333,27.009643 -28.074653,33.239523 -6.851724,3.1849 -14.381478,4.9151 -21.951153,4.75733 C 42.523792,111.74808 25.599415,102.3389 16.426537,87.786101 11.62895,80.318254 8.757905,71.571812 8.358161,62.702255 8.0013844,55.113247 9.1217365,47.434883 12.102,40.42247 17.233845,27.694608 27.668273,17.288055 40.369069,12.104712 54.952014,6.0456542 72.309203,7.2416195 85.92971,15.260845 c 0.639424,0.241008 1.667199,1.163807 2.157863,0.196899 1.484803,-1.814605 3.080311,-3.603049 4.267418,-5.6204364 C 91.765023,8.6534016 90.222039,8.2554609 89.177654,7.541762 83.086472,4.205745 76.494243,1.7517202 69.612223,0.70208199 66.299073,0.11727418 62.928482,-0.01074356 59.57025,0.04573439 Z"
     id="path4" /><path
     style="fill:#ffffff;fill-rule:evenodd;stroke-width:0"
     d="m 59.597532,40.922253 c -6.707597,-0.0058 -13.101702,3.956589 -16.335113,9.790643 -1.563077,2.852968 -2.505635,6.093237 -2.247638,9.368452 -0.183156,3.533835 0.910971,7.007494 2.813369,9.964397 3.212821,5.276967 9.134907,8.652002 15.284356,8.937552 6.1944,0.19742 12.515788,-2.701768 16.149858,-7.79651 2.745188,-3.756528 4.141031,-8.587417 3.511118,-13.21764 -0.03508,-0.651683 -0.727055,-0.786415 -1.117685,-0.281628 -2.606153,1.876014 -5.251799,3.766009 -7.523708,6.042557 -1.343204,2.356273 -3.159134,4.594712 -5.609685,5.859217 -4.170545,2.035655 -9.551294,0.975304 -12.562516,-2.575568 -3.022641,-3.172996 -3.487984,-8.358491 -1.447855,-12.178588 1.749175,-2.994658 4.864603,-5.413218 8.444014,-5.480906 1.230422,-0.261533 2.931633,0.402359 3.565921,-1.008875 1.367298,-1.937981 3.196386,-3.659073 4.174423,-5.826812 -0.5924,-1.035936 -2.113391,-1.004782 -3.147138,-1.299413 -1.304913,-0.214576 -2.629352,-0.313323 -3.951721,-0.296878 z"
     id="path5" /></svg>
